<mxfile host="Electron" agent="Mozilla/5.0 (Windows NT 10.0; Win64; x64) AppleWebKit/537.36 (KHTML, like Gecko) draw.io/24.7.8 Chrome/128.0.6613.36 Electron/32.0.1 Safari/537.36" version="24.7.8">
  <diagram name="Pagina-1" id="xaKPHcHJKiQmRatQQbK0">
    <mxGraphModel dx="2261" dy="844" grid="1" gridSize="10" guides="1" tooltips="1" connect="1" arrows="1" fold="1" page="1" pageScale="1" pageWidth="827" pageHeight="1169" math="0" shadow="0">
      <root>
        <mxCell id="0" />
        <mxCell id="1" parent="0" />
        <mxCell id="10htpw7wtOwzYr2ZFJ2o-8" value="" style="group" parent="1" vertex="1" connectable="0">
          <mxGeometry x="-70" y="100" width="140" height="60" as="geometry" />
        </mxCell>
        <mxCell id="10htpw7wtOwzYr2ZFJ2o-4" value="" style="rounded=0;whiteSpace=wrap;html=1;" parent="10htpw7wtOwzYr2ZFJ2o-8" vertex="1">
          <mxGeometry width="120" height="60" as="geometry" />
        </mxCell>
        <mxCell id="10htpw7wtOwzYr2ZFJ2o-5" value="Destinazione" style="text;html=1;align=center;verticalAlign=middle;whiteSpace=wrap;rounded=0;container=1;" parent="10htpw7wtOwzYr2ZFJ2o-8" vertex="1" collapsed="1">
          <mxGeometry x="5" y="15" width="110" height="30" as="geometry">
            <mxRectangle x="5" y="15" width="60" height="30" as="alternateBounds" />
          </mxGeometry>
        </mxCell>
        <mxCell id="10htpw7wtOwzYr2ZFJ2o-29" value="" style="endArrow=none;html=1;rounded=0;" parent="10htpw7wtOwzYr2ZFJ2o-8" edge="1">
          <mxGeometry width="50" height="50" relative="1" as="geometry">
            <mxPoint x="140" y="55" as="sourcePoint" />
            <mxPoint x="140" y="5" as="targetPoint" />
          </mxGeometry>
        </mxCell>
        <mxCell id="10htpw7wtOwzYr2ZFJ2o-13" value="" style="group" parent="1" vertex="1" connectable="0">
          <mxGeometry x="670" y="130" width="120" height="60" as="geometry" />
        </mxCell>
        <mxCell id="10htpw7wtOwzYr2ZFJ2o-11" value="" style="rounded=0;whiteSpace=wrap;html=1;" parent="10htpw7wtOwzYr2ZFJ2o-13" vertex="1">
          <mxGeometry width="120" height="60" as="geometry" />
        </mxCell>
        <mxCell id="10htpw7wtOwzYr2ZFJ2o-12" value="Recensione" style="text;html=1;align=center;verticalAlign=middle;whiteSpace=wrap;rounded=0;" parent="10htpw7wtOwzYr2ZFJ2o-13" vertex="1">
          <mxGeometry x="30" y="15" width="60" height="30" as="geometry" />
        </mxCell>
        <mxCell id="10htpw7wtOwzYr2ZFJ2o-15" value="" style="group" parent="1" vertex="1" connectable="0">
          <mxGeometry x="370" y="130" width="120" height="60" as="geometry" />
        </mxCell>
        <mxCell id="10htpw7wtOwzYr2ZFJ2o-9" value="" style="rounded=0;whiteSpace=wrap;html=1;" parent="10htpw7wtOwzYr2ZFJ2o-15" vertex="1">
          <mxGeometry width="120" height="60" as="geometry" />
        </mxCell>
        <mxCell id="10htpw7wtOwzYr2ZFJ2o-10" value="PacchettoVacanza" style="text;html=1;align=center;verticalAlign=middle;whiteSpace=wrap;rounded=0;" parent="10htpw7wtOwzYr2ZFJ2o-15" vertex="1">
          <mxGeometry x="26" y="15" width="64" height="30" as="geometry" />
        </mxCell>
        <mxCell id="10htpw7wtOwzYr2ZFJ2o-17" value="Ha" style="rhombus;whiteSpace=wrap;html=1;" parent="1" vertex="1">
          <mxGeometry x="540" y="120" width="80" height="80" as="geometry" />
        </mxCell>
        <mxCell id="10htpw7wtOwzYr2ZFJ2o-18" style="edgeStyle=orthogonalEdgeStyle;rounded=0;orthogonalLoop=1;jettySize=auto;html=1;exitX=0;exitY=0.5;exitDx=0;exitDy=0;entryX=1;entryY=0.5;entryDx=0;entryDy=0;" parent="1" source="10htpw7wtOwzYr2ZFJ2o-11" target="10htpw7wtOwzYr2ZFJ2o-17" edge="1">
          <mxGeometry relative="1" as="geometry" />
        </mxCell>
        <mxCell id="10htpw7wtOwzYr2ZFJ2o-19" style="edgeStyle=orthogonalEdgeStyle;rounded=0;orthogonalLoop=1;jettySize=auto;html=1;exitX=1;exitY=0.5;exitDx=0;exitDy=0;entryX=0;entryY=0.5;entryDx=0;entryDy=0;endArrow=doubleBlock;endFill=1;" parent="1" source="10htpw7wtOwzYr2ZFJ2o-9" target="10htpw7wtOwzYr2ZFJ2o-17" edge="1">
          <mxGeometry relative="1" as="geometry" />
        </mxCell>
        <mxCell id="10htpw7wtOwzYr2ZFJ2o-21" style="edgeStyle=orthogonalEdgeStyle;rounded=0;orthogonalLoop=1;jettySize=auto;html=1;exitX=0;exitY=0.5;exitDx=0;exitDy=0;entryX=1;entryY=0.5;entryDx=0;entryDy=0;endArrow=doubleBlock;endFill=1;" parent="1" source="10htpw7wtOwzYr2ZFJ2o-9" target="10htpw7wtOwzYr2ZFJ2o-32" edge="1">
          <mxGeometry relative="1" as="geometry">
            <mxPoint x="330" y="50" as="targetPoint" />
            <Array as="points">
              <mxPoint x="330" y="160" />
              <mxPoint x="330" y="50" />
            </Array>
          </mxGeometry>
        </mxCell>
        <mxCell id="10htpw7wtOwzYr2ZFJ2o-23" style="edgeStyle=orthogonalEdgeStyle;rounded=0;orthogonalLoop=1;jettySize=auto;html=1;exitX=1;exitY=0.5;exitDx=0;exitDy=0;endArrow=doubleBlock;endFill=1;" parent="1" source="10htpw7wtOwzYr2ZFJ2o-4" target="10htpw7wtOwzYr2ZFJ2o-32" edge="1">
          <mxGeometry relative="1" as="geometry">
            <mxPoint x="210" y="50" as="targetPoint" />
            <Array as="points">
              <mxPoint x="50" y="140" />
              <mxPoint x="110" y="140" />
              <mxPoint x="110" y="50" />
            </Array>
          </mxGeometry>
        </mxCell>
        <mxCell id="10htpw7wtOwzYr2ZFJ2o-188" style="edgeStyle=orthogonalEdgeStyle;rounded=0;orthogonalLoop=1;jettySize=auto;html=1;exitX=0.5;exitY=1;exitDx=0;exitDy=0;entryX=0;entryY=0.5;entryDx=0;entryDy=0;" parent="1" source="10htpw7wtOwzYr2ZFJ2o-32" target="10htpw7wtOwzYr2ZFJ2o-166" edge="1">
          <mxGeometry relative="1" as="geometry" />
        </mxCell>
        <mxCell id="10htpw7wtOwzYr2ZFJ2o-189" style="edgeStyle=orthogonalEdgeStyle;rounded=0;orthogonalLoop=1;jettySize=auto;html=1;exitX=0.5;exitY=1;exitDx=0;exitDy=0;entryX=0;entryY=0.5;entryDx=0;entryDy=0;" parent="1" source="10htpw7wtOwzYr2ZFJ2o-32" target="10htpw7wtOwzYr2ZFJ2o-169" edge="1">
          <mxGeometry relative="1" as="geometry" />
        </mxCell>
        <mxCell id="10htpw7wtOwzYr2ZFJ2o-190" style="edgeStyle=orthogonalEdgeStyle;rounded=0;orthogonalLoop=1;jettySize=auto;html=1;exitX=0.5;exitY=1;exitDx=0;exitDy=0;entryX=0;entryY=0.5;entryDx=0;entryDy=0;" parent="1" source="10htpw7wtOwzYr2ZFJ2o-32" target="10htpw7wtOwzYr2ZFJ2o-172" edge="1">
          <mxGeometry relative="1" as="geometry" />
        </mxCell>
        <mxCell id="10htpw7wtOwzYr2ZFJ2o-32" value="Contiene" style="rhombus;whiteSpace=wrap;html=1;" parent="1" vertex="1">
          <mxGeometry x="130" y="10" width="80" height="80" as="geometry" />
        </mxCell>
        <mxCell id="10htpw7wtOwzYr2ZFJ2o-36" value="" style="endArrow=none;html=1;rounded=0;" parent="1" edge="1">
          <mxGeometry width="50" height="50" relative="1" as="geometry">
            <mxPoint x="350" y="190" as="sourcePoint" />
            <mxPoint x="350" y="130" as="targetPoint" />
          </mxGeometry>
        </mxCell>
        <mxCell id="10htpw7wtOwzYr2ZFJ2o-37" value="" style="endArrow=none;html=1;rounded=0;" parent="1" edge="1">
          <mxGeometry width="50" height="50" relative="1" as="geometry">
            <mxPoint x="510" y="190" as="sourcePoint" />
            <mxPoint x="510" y="130" as="targetPoint" />
          </mxGeometry>
        </mxCell>
        <mxCell id="10htpw7wtOwzYr2ZFJ2o-60" value="" style="group" parent="1" vertex="1" connectable="0">
          <mxGeometry x="430" y="220" width="120" height="210" as="geometry" />
        </mxCell>
        <mxCell id="10htpw7wtOwzYr2ZFJ2o-41" value="" style="group" parent="10htpw7wtOwzYr2ZFJ2o-60" vertex="1" connectable="0">
          <mxGeometry width="96" height="30" as="geometry" />
        </mxCell>
        <mxCell id="10htpw7wtOwzYr2ZFJ2o-38" value="" style="ellipse;whiteSpace=wrap;html=1;aspect=fixed;fillColor=#0f0f0f;" parent="10htpw7wtOwzYr2ZFJ2o-41" vertex="1">
          <mxGeometry y="5" width="20" height="20" as="geometry" />
        </mxCell>
        <mxCell id="10htpw7wtOwzYr2ZFJ2o-39" value="Id Pacchetto" style="text;html=1;align=center;verticalAlign=middle;whiteSpace=wrap;rounded=0;" parent="10htpw7wtOwzYr2ZFJ2o-41" vertex="1">
          <mxGeometry x="20" width="76" height="30" as="geometry" />
        </mxCell>
        <mxCell id="10htpw7wtOwzYr2ZFJ2o-42" value="" style="group" parent="10htpw7wtOwzYr2ZFJ2o-60" vertex="1" connectable="0">
          <mxGeometry y="30" width="120" height="30" as="geometry" />
        </mxCell>
        <mxCell id="10htpw7wtOwzYr2ZFJ2o-43" value="" style="ellipse;whiteSpace=wrap;html=1;aspect=fixed;" parent="10htpw7wtOwzYr2ZFJ2o-42" vertex="1">
          <mxGeometry y="5" width="20" height="20" as="geometry" />
        </mxCell>
        <mxCell id="10htpw7wtOwzYr2ZFJ2o-44" value="Nome Pacchetto" style="text;html=1;align=center;verticalAlign=middle;whiteSpace=wrap;rounded=0;" parent="10htpw7wtOwzYr2ZFJ2o-42" vertex="1">
          <mxGeometry x="20" width="100" height="30" as="geometry" />
        </mxCell>
        <mxCell id="10htpw7wtOwzYr2ZFJ2o-45" value="" style="group" parent="10htpw7wtOwzYr2ZFJ2o-60" vertex="1" connectable="0">
          <mxGeometry x="2" y="60" width="96" height="30" as="geometry" />
        </mxCell>
        <mxCell id="10htpw7wtOwzYr2ZFJ2o-46" value="" style="ellipse;whiteSpace=wrap;html=1;aspect=fixed;" parent="10htpw7wtOwzYr2ZFJ2o-45" vertex="1">
          <mxGeometry y="5" width="20" height="20" as="geometry" />
        </mxCell>
        <mxCell id="10htpw7wtOwzYr2ZFJ2o-47" value="Prezzo" style="text;html=1;align=center;verticalAlign=middle;whiteSpace=wrap;rounded=0;" parent="10htpw7wtOwzYr2ZFJ2o-45" vertex="1">
          <mxGeometry x="20" width="76" height="30" as="geometry" />
        </mxCell>
        <mxCell id="10htpw7wtOwzYr2ZFJ2o-48" value="" style="group" parent="10htpw7wtOwzYr2ZFJ2o-60" vertex="1" connectable="0">
          <mxGeometry x="2" y="90" width="96" height="30" as="geometry" />
        </mxCell>
        <mxCell id="10htpw7wtOwzYr2ZFJ2o-49" value="" style="ellipse;whiteSpace=wrap;html=1;aspect=fixed;" parent="10htpw7wtOwzYr2ZFJ2o-48" vertex="1">
          <mxGeometry y="5" width="20" height="20" as="geometry" />
        </mxCell>
        <mxCell id="10htpw7wtOwzYr2ZFJ2o-50" value="Durata" style="text;html=1;align=center;verticalAlign=middle;whiteSpace=wrap;rounded=0;" parent="10htpw7wtOwzYr2ZFJ2o-48" vertex="1">
          <mxGeometry x="20" width="76" height="30" as="geometry" />
        </mxCell>
        <mxCell id="10htpw7wtOwzYr2ZFJ2o-51" value="" style="group" parent="10htpw7wtOwzYr2ZFJ2o-60" vertex="1" connectable="0">
          <mxGeometry x="2" y="120" width="96" height="30" as="geometry" />
        </mxCell>
        <mxCell id="10htpw7wtOwzYr2ZFJ2o-52" value="" style="ellipse;whiteSpace=wrap;html=1;aspect=fixed;" parent="10htpw7wtOwzYr2ZFJ2o-51" vertex="1">
          <mxGeometry y="5" width="20" height="20" as="geometry" />
        </mxCell>
        <mxCell id="10htpw7wtOwzYr2ZFJ2o-53" value="Data Inizio" style="text;html=1;align=center;verticalAlign=middle;whiteSpace=wrap;rounded=0;" parent="10htpw7wtOwzYr2ZFJ2o-51" vertex="1">
          <mxGeometry x="20" width="76" height="30" as="geometry" />
        </mxCell>
        <mxCell id="10htpw7wtOwzYr2ZFJ2o-54" value="" style="group" parent="10htpw7wtOwzYr2ZFJ2o-60" vertex="1" connectable="0">
          <mxGeometry x="2" y="150" width="96" height="30" as="geometry" />
        </mxCell>
        <mxCell id="10htpw7wtOwzYr2ZFJ2o-55" value="" style="ellipse;whiteSpace=wrap;html=1;aspect=fixed;" parent="10htpw7wtOwzYr2ZFJ2o-54" vertex="1">
          <mxGeometry y="5" width="20" height="20" as="geometry" />
        </mxCell>
        <mxCell id="10htpw7wtOwzYr2ZFJ2o-56" value="Data Fine" style="text;html=1;align=center;verticalAlign=middle;whiteSpace=wrap;rounded=0;" parent="10htpw7wtOwzYr2ZFJ2o-54" vertex="1">
          <mxGeometry x="20" width="76" height="30" as="geometry" />
        </mxCell>
        <mxCell id="10htpw7wtOwzYr2ZFJ2o-57" value="" style="group" parent="10htpw7wtOwzYr2ZFJ2o-60" vertex="1" connectable="0">
          <mxGeometry x="2" y="180" width="96" height="30" as="geometry" />
        </mxCell>
        <mxCell id="10htpw7wtOwzYr2ZFJ2o-58" value="" style="ellipse;whiteSpace=wrap;html=1;aspect=fixed;fillColor=#141414;" parent="10htpw7wtOwzYr2ZFJ2o-57" vertex="1">
          <mxGeometry y="5" width="20" height="20" as="geometry" />
        </mxCell>
        <mxCell id="10htpw7wtOwzYr2ZFJ2o-59" value="Codice Pacchetto" style="text;html=1;align=center;verticalAlign=middle;whiteSpace=wrap;rounded=0;" parent="10htpw7wtOwzYr2ZFJ2o-57" vertex="1">
          <mxGeometry x="20" width="76" height="30" as="geometry" />
        </mxCell>
        <mxCell id="10htpw7wtOwzYr2ZFJ2o-62" style="edgeStyle=orthogonalEdgeStyle;rounded=0;orthogonalLoop=1;jettySize=auto;html=1;exitX=0.25;exitY=1;exitDx=0;exitDy=0;entryX=0;entryY=0.5;entryDx=0;entryDy=0;" parent="1" source="10htpw7wtOwzYr2ZFJ2o-9" target="10htpw7wtOwzYr2ZFJ2o-38" edge="1">
          <mxGeometry relative="1" as="geometry" />
        </mxCell>
        <mxCell id="10htpw7wtOwzYr2ZFJ2o-63" style="edgeStyle=orthogonalEdgeStyle;rounded=0;orthogonalLoop=1;jettySize=auto;html=1;exitX=0.25;exitY=1;exitDx=0;exitDy=0;entryX=0;entryY=0.5;entryDx=0;entryDy=0;" parent="1" source="10htpw7wtOwzYr2ZFJ2o-9" target="10htpw7wtOwzYr2ZFJ2o-43" edge="1">
          <mxGeometry relative="1" as="geometry" />
        </mxCell>
        <mxCell id="10htpw7wtOwzYr2ZFJ2o-64" style="edgeStyle=orthogonalEdgeStyle;rounded=0;orthogonalLoop=1;jettySize=auto;html=1;exitX=0.25;exitY=1;exitDx=0;exitDy=0;entryX=0;entryY=0.5;entryDx=0;entryDy=0;" parent="1" source="10htpw7wtOwzYr2ZFJ2o-9" target="10htpw7wtOwzYr2ZFJ2o-46" edge="1">
          <mxGeometry relative="1" as="geometry" />
        </mxCell>
        <mxCell id="10htpw7wtOwzYr2ZFJ2o-65" style="edgeStyle=orthogonalEdgeStyle;rounded=0;orthogonalLoop=1;jettySize=auto;html=1;exitX=0.25;exitY=1;exitDx=0;exitDy=0;entryX=0;entryY=0.5;entryDx=0;entryDy=0;" parent="1" source="10htpw7wtOwzYr2ZFJ2o-9" target="10htpw7wtOwzYr2ZFJ2o-49" edge="1">
          <mxGeometry relative="1" as="geometry" />
        </mxCell>
        <mxCell id="10htpw7wtOwzYr2ZFJ2o-66" style="edgeStyle=orthogonalEdgeStyle;rounded=0;orthogonalLoop=1;jettySize=auto;html=1;exitX=0.25;exitY=1;exitDx=0;exitDy=0;entryX=0;entryY=0.5;entryDx=0;entryDy=0;" parent="1" source="10htpw7wtOwzYr2ZFJ2o-9" target="10htpw7wtOwzYr2ZFJ2o-52" edge="1">
          <mxGeometry relative="1" as="geometry" />
        </mxCell>
        <mxCell id="10htpw7wtOwzYr2ZFJ2o-67" style="edgeStyle=orthogonalEdgeStyle;rounded=0;orthogonalLoop=1;jettySize=auto;html=1;exitX=0.25;exitY=1;exitDx=0;exitDy=0;entryX=0;entryY=0.5;entryDx=0;entryDy=0;" parent="1" source="10htpw7wtOwzYr2ZFJ2o-9" target="10htpw7wtOwzYr2ZFJ2o-55" edge="1">
          <mxGeometry relative="1" as="geometry" />
        </mxCell>
        <mxCell id="10htpw7wtOwzYr2ZFJ2o-68" style="edgeStyle=orthogonalEdgeStyle;rounded=0;orthogonalLoop=1;jettySize=auto;html=1;exitX=0.25;exitY=1;exitDx=0;exitDy=0;entryX=0;entryY=0.5;entryDx=0;entryDy=0;" parent="1" source="10htpw7wtOwzYr2ZFJ2o-9" target="10htpw7wtOwzYr2ZFJ2o-58" edge="1">
          <mxGeometry relative="1" as="geometry" />
        </mxCell>
        <mxCell id="10htpw7wtOwzYr2ZFJ2o-135" value="" style="group" parent="1" vertex="1" connectable="0">
          <mxGeometry x="740" y="210" width="122" height="210" as="geometry" />
        </mxCell>
        <mxCell id="10htpw7wtOwzYr2ZFJ2o-136" value="" style="group" parent="10htpw7wtOwzYr2ZFJ2o-135" vertex="1" connectable="0">
          <mxGeometry width="110" height="30" as="geometry" />
        </mxCell>
        <mxCell id="10htpw7wtOwzYr2ZFJ2o-137" value="" style="ellipse;whiteSpace=wrap;html=1;aspect=fixed;fillColor=#121212;" parent="10htpw7wtOwzYr2ZFJ2o-136" vertex="1">
          <mxGeometry y="5" width="20" height="20" as="geometry" />
        </mxCell>
        <mxCell id="10htpw7wtOwzYr2ZFJ2o-138" value="Id Recensione" style="text;html=1;align=center;verticalAlign=middle;whiteSpace=wrap;rounded=0;" parent="10htpw7wtOwzYr2ZFJ2o-136" vertex="1">
          <mxGeometry x="20" width="90" height="30" as="geometry" />
        </mxCell>
        <mxCell id="10htpw7wtOwzYr2ZFJ2o-139" value="" style="group" parent="10htpw7wtOwzYr2ZFJ2o-135" vertex="1" connectable="0">
          <mxGeometry y="30" width="120" height="30" as="geometry" />
        </mxCell>
        <mxCell id="10htpw7wtOwzYr2ZFJ2o-140" value="" style="ellipse;whiteSpace=wrap;html=1;aspect=fixed;" parent="10htpw7wtOwzYr2ZFJ2o-139" vertex="1">
          <mxGeometry y="5" width="20" height="20" as="geometry" />
        </mxCell>
        <mxCell id="10htpw7wtOwzYr2ZFJ2o-141" value="Nome Utente" style="text;html=1;align=center;verticalAlign=middle;whiteSpace=wrap;rounded=0;" parent="10htpw7wtOwzYr2ZFJ2o-139" vertex="1">
          <mxGeometry x="20" width="100" height="30" as="geometry" />
        </mxCell>
        <mxCell id="10htpw7wtOwzYr2ZFJ2o-142" value="" style="group" parent="10htpw7wtOwzYr2ZFJ2o-135" vertex="1" connectable="0">
          <mxGeometry x="2" y="60" width="96" height="30" as="geometry" />
        </mxCell>
        <mxCell id="10htpw7wtOwzYr2ZFJ2o-143" value="" style="ellipse;whiteSpace=wrap;html=1;aspect=fixed;" parent="10htpw7wtOwzYr2ZFJ2o-142" vertex="1">
          <mxGeometry y="5" width="20" height="20" as="geometry" />
        </mxCell>
        <mxCell id="10htpw7wtOwzYr2ZFJ2o-144" value="Voto" style="text;html=1;align=center;verticalAlign=middle;whiteSpace=wrap;rounded=0;" parent="10htpw7wtOwzYr2ZFJ2o-142" vertex="1">
          <mxGeometry x="20" width="76" height="30" as="geometry" />
        </mxCell>
        <mxCell id="10htpw7wtOwzYr2ZFJ2o-145" value="" style="group" parent="10htpw7wtOwzYr2ZFJ2o-135" vertex="1" connectable="0">
          <mxGeometry x="2" y="90" width="96" height="30" as="geometry" />
        </mxCell>
        <mxCell id="10htpw7wtOwzYr2ZFJ2o-146" value="" style="ellipse;whiteSpace=wrap;html=1;aspect=fixed;" parent="10htpw7wtOwzYr2ZFJ2o-145" vertex="1">
          <mxGeometry y="5" width="20" height="20" as="geometry" />
        </mxCell>
        <mxCell id="10htpw7wtOwzYr2ZFJ2o-147" value="Commeto" style="text;html=1;align=center;verticalAlign=middle;whiteSpace=wrap;rounded=0;" parent="10htpw7wtOwzYr2ZFJ2o-145" vertex="1">
          <mxGeometry x="20" width="76" height="30" as="geometry" />
        </mxCell>
        <mxCell id="10htpw7wtOwzYr2ZFJ2o-148" value="" style="group" parent="10htpw7wtOwzYr2ZFJ2o-135" vertex="1" connectable="0">
          <mxGeometry x="2" y="120" width="120" height="30" as="geometry" />
        </mxCell>
        <mxCell id="10htpw7wtOwzYr2ZFJ2o-149" value="" style="ellipse;whiteSpace=wrap;html=1;aspect=fixed;" parent="10htpw7wtOwzYr2ZFJ2o-148" vertex="1">
          <mxGeometry y="5" width="20" height="20" as="geometry" />
        </mxCell>
        <mxCell id="10htpw7wtOwzYr2ZFJ2o-150" value="Data Recensione" style="text;html=1;align=center;verticalAlign=middle;whiteSpace=wrap;rounded=0;" parent="10htpw7wtOwzYr2ZFJ2o-148" vertex="1">
          <mxGeometry x="20" width="100" height="30" as="geometry" />
        </mxCell>
        <mxCell id="10htpw7wtOwzYr2ZFJ2o-151" value="" style="group" parent="10htpw7wtOwzYr2ZFJ2o-135" vertex="1" connectable="0">
          <mxGeometry x="2" y="150" width="110" height="30" as="geometry" />
        </mxCell>
        <mxCell id="10htpw7wtOwzYr2ZFJ2o-152" value="" style="ellipse;whiteSpace=wrap;html=1;aspect=fixed;" parent="10htpw7wtOwzYr2ZFJ2o-151" vertex="1">
          <mxGeometry y="5" width="20" height="20" as="geometry" />
        </mxCell>
        <mxCell id="10htpw7wtOwzYr2ZFJ2o-153" value="Pacchetto Riff" style="text;html=1;align=center;verticalAlign=middle;whiteSpace=wrap;rounded=0;" parent="10htpw7wtOwzYr2ZFJ2o-151" vertex="1">
          <mxGeometry x="20" width="90" height="30" as="geometry" />
        </mxCell>
        <mxCell id="6AZz_BTQMS4ATCR-2ha--4" value="" style="group" vertex="1" connectable="0" parent="10htpw7wtOwzYr2ZFJ2o-135">
          <mxGeometry y="180" width="110" height="30" as="geometry" />
        </mxCell>
        <mxCell id="6AZz_BTQMS4ATCR-2ha--5" value="" style="ellipse;whiteSpace=wrap;html=1;aspect=fixed;strokeColor=#000000;fillColor=#151414;" vertex="1" parent="6AZz_BTQMS4ATCR-2ha--4">
          <mxGeometry y="5" width="20" height="20" as="geometry" />
        </mxCell>
        <mxCell id="6AZz_BTQMS4ATCR-2ha--6" value="Codice Recensione" style="text;html=1;align=center;verticalAlign=middle;whiteSpace=wrap;rounded=0;" vertex="1" parent="6AZz_BTQMS4ATCR-2ha--4">
          <mxGeometry x="20" width="90" height="30" as="geometry" />
        </mxCell>
        <mxCell id="10htpw7wtOwzYr2ZFJ2o-158" style="edgeStyle=orthogonalEdgeStyle;rounded=0;orthogonalLoop=1;jettySize=auto;html=1;exitX=0.25;exitY=1;exitDx=0;exitDy=0;entryX=0;entryY=0.5;entryDx=0;entryDy=0;" parent="1" source="10htpw7wtOwzYr2ZFJ2o-11" target="10htpw7wtOwzYr2ZFJ2o-137" edge="1">
          <mxGeometry relative="1" as="geometry" />
        </mxCell>
        <mxCell id="10htpw7wtOwzYr2ZFJ2o-159" style="edgeStyle=orthogonalEdgeStyle;rounded=0;orthogonalLoop=1;jettySize=auto;html=1;exitX=0.25;exitY=1;exitDx=0;exitDy=0;entryX=0;entryY=0.5;entryDx=0;entryDy=0;" parent="1" source="10htpw7wtOwzYr2ZFJ2o-11" target="10htpw7wtOwzYr2ZFJ2o-140" edge="1">
          <mxGeometry relative="1" as="geometry" />
        </mxCell>
        <mxCell id="10htpw7wtOwzYr2ZFJ2o-160" style="edgeStyle=orthogonalEdgeStyle;rounded=0;orthogonalLoop=1;jettySize=auto;html=1;exitX=0.25;exitY=1;exitDx=0;exitDy=0;entryX=0;entryY=0.5;entryDx=0;entryDy=0;" parent="1" source="10htpw7wtOwzYr2ZFJ2o-11" target="10htpw7wtOwzYr2ZFJ2o-143" edge="1">
          <mxGeometry relative="1" as="geometry" />
        </mxCell>
        <mxCell id="10htpw7wtOwzYr2ZFJ2o-161" style="edgeStyle=orthogonalEdgeStyle;rounded=0;orthogonalLoop=1;jettySize=auto;html=1;exitX=0.25;exitY=1;exitDx=0;exitDy=0;entryX=0;entryY=0.5;entryDx=0;entryDy=0;" parent="1" source="10htpw7wtOwzYr2ZFJ2o-11" target="10htpw7wtOwzYr2ZFJ2o-146" edge="1">
          <mxGeometry relative="1" as="geometry" />
        </mxCell>
        <mxCell id="10htpw7wtOwzYr2ZFJ2o-162" style="edgeStyle=orthogonalEdgeStyle;rounded=0;orthogonalLoop=1;jettySize=auto;html=1;exitX=0.25;exitY=1;exitDx=0;exitDy=0;entryX=0;entryY=0.5;entryDx=0;entryDy=0;" parent="1" source="10htpw7wtOwzYr2ZFJ2o-11" target="10htpw7wtOwzYr2ZFJ2o-149" edge="1">
          <mxGeometry relative="1" as="geometry" />
        </mxCell>
        <mxCell id="10htpw7wtOwzYr2ZFJ2o-163" style="edgeStyle=orthogonalEdgeStyle;rounded=0;orthogonalLoop=1;jettySize=auto;html=1;exitX=0.25;exitY=1;exitDx=0;exitDy=0;entryX=0;entryY=0.5;entryDx=0;entryDy=0;" parent="1" source="10htpw7wtOwzYr2ZFJ2o-11" target="10htpw7wtOwzYr2ZFJ2o-152" edge="1">
          <mxGeometry relative="1" as="geometry" />
        </mxCell>
        <mxCell id="10htpw7wtOwzYr2ZFJ2o-164" value="" style="group" parent="1" vertex="1" connectable="0">
          <mxGeometry x="180" y="190" width="132" height="210" as="geometry" />
        </mxCell>
        <mxCell id="10htpw7wtOwzYr2ZFJ2o-186" value="" style="group" parent="10htpw7wtOwzYr2ZFJ2o-164" vertex="1" connectable="0">
          <mxGeometry x="20" y="-50" width="132" height="90" as="geometry" />
        </mxCell>
        <mxCell id="10htpw7wtOwzYr2ZFJ2o-165" value="" style="group" parent="10htpw7wtOwzYr2ZFJ2o-186" vertex="1" connectable="0">
          <mxGeometry width="96" height="30" as="geometry" />
        </mxCell>
        <mxCell id="10htpw7wtOwzYr2ZFJ2o-166" value="" style="ellipse;whiteSpace=wrap;html=1;aspect=fixed;fillColor=#0d0c0c;" parent="10htpw7wtOwzYr2ZFJ2o-165" vertex="1">
          <mxGeometry y="5" width="20" height="20" as="geometry" />
        </mxCell>
        <mxCell id="10htpw7wtOwzYr2ZFJ2o-167" value="Id_DesPac" style="text;html=1;align=center;verticalAlign=middle;whiteSpace=wrap;rounded=0;" parent="10htpw7wtOwzYr2ZFJ2o-165" vertex="1">
          <mxGeometry x="20" width="76" height="30" as="geometry" />
        </mxCell>
        <mxCell id="10htpw7wtOwzYr2ZFJ2o-168" value="" style="group" parent="10htpw7wtOwzYr2ZFJ2o-186" vertex="1" connectable="0">
          <mxGeometry y="30" width="120" height="30" as="geometry" />
        </mxCell>
        <mxCell id="10htpw7wtOwzYr2ZFJ2o-169" value="" style="ellipse;whiteSpace=wrap;html=1;aspect=fixed;" parent="10htpw7wtOwzYr2ZFJ2o-168" vertex="1">
          <mxGeometry y="5" width="20" height="20" as="geometry" />
        </mxCell>
        <mxCell id="10htpw7wtOwzYr2ZFJ2o-170" value="RiffPaccheto" style="text;html=1;align=center;verticalAlign=middle;whiteSpace=wrap;rounded=0;" parent="10htpw7wtOwzYr2ZFJ2o-168" vertex="1">
          <mxGeometry x="20" width="100" height="30" as="geometry" />
        </mxCell>
        <mxCell id="10htpw7wtOwzYr2ZFJ2o-171" value="" style="group" parent="10htpw7wtOwzYr2ZFJ2o-186" vertex="1" connectable="0">
          <mxGeometry x="2" y="60" width="130" height="30" as="geometry" />
        </mxCell>
        <mxCell id="10htpw7wtOwzYr2ZFJ2o-172" value="" style="ellipse;whiteSpace=wrap;html=1;aspect=fixed;" parent="10htpw7wtOwzYr2ZFJ2o-171" vertex="1">
          <mxGeometry y="5" width="20" height="20" as="geometry" />
        </mxCell>
        <mxCell id="10htpw7wtOwzYr2ZFJ2o-173" value="RiffDestinazione" style="text;html=1;align=center;verticalAlign=middle;whiteSpace=wrap;rounded=0;" parent="10htpw7wtOwzYr2ZFJ2o-171" vertex="1">
          <mxGeometry x="20" width="110" height="30" as="geometry" />
        </mxCell>
        <mxCell id="10htpw7wtOwzYr2ZFJ2o-230" value="" style="group" parent="1" vertex="1" connectable="0">
          <mxGeometry y="170" width="122" height="210" as="geometry" />
        </mxCell>
        <mxCell id="10htpw7wtOwzYr2ZFJ2o-231" value="" style="group" parent="10htpw7wtOwzYr2ZFJ2o-230" vertex="1" connectable="0">
          <mxGeometry width="110" height="30" as="geometry" />
        </mxCell>
        <mxCell id="10htpw7wtOwzYr2ZFJ2o-232" value="" style="ellipse;whiteSpace=wrap;html=1;aspect=fixed;strokeColor=#000000;fillColor=#000000;" parent="10htpw7wtOwzYr2ZFJ2o-231" vertex="1">
          <mxGeometry y="5" width="20" height="20" as="geometry" />
        </mxCell>
        <mxCell id="10htpw7wtOwzYr2ZFJ2o-233" value="Id Destinazione" style="text;html=1;align=center;verticalAlign=middle;whiteSpace=wrap;rounded=0;" parent="10htpw7wtOwzYr2ZFJ2o-231" vertex="1">
          <mxGeometry x="20" width="90" height="30" as="geometry" />
        </mxCell>
        <mxCell id="10htpw7wtOwzYr2ZFJ2o-234" value="" style="group" parent="10htpw7wtOwzYr2ZFJ2o-230" vertex="1" connectable="0">
          <mxGeometry y="30" width="120" height="30" as="geometry" />
        </mxCell>
        <mxCell id="10htpw7wtOwzYr2ZFJ2o-235" value="" style="ellipse;whiteSpace=wrap;html=1;aspect=fixed;fillColor=#000000;" parent="10htpw7wtOwzYr2ZFJ2o-234" vertex="1">
          <mxGeometry y="5" width="20" height="20" as="geometry" />
        </mxCell>
        <mxCell id="10htpw7wtOwzYr2ZFJ2o-236" value="Cod Destinazione" style="text;html=1;align=center;verticalAlign=middle;whiteSpace=wrap;rounded=0;" parent="10htpw7wtOwzYr2ZFJ2o-234" vertex="1">
          <mxGeometry x="20" width="100" height="30" as="geometry" />
        </mxCell>
        <mxCell id="10htpw7wtOwzYr2ZFJ2o-237" value="" style="group" parent="10htpw7wtOwzYr2ZFJ2o-230" vertex="1" connectable="0">
          <mxGeometry x="2" y="60" width="96" height="30" as="geometry" />
        </mxCell>
        <mxCell id="10htpw7wtOwzYr2ZFJ2o-238" value="" style="ellipse;whiteSpace=wrap;html=1;aspect=fixed;" parent="10htpw7wtOwzYr2ZFJ2o-237" vertex="1">
          <mxGeometry y="5" width="20" height="20" as="geometry" />
        </mxCell>
        <mxCell id="10htpw7wtOwzYr2ZFJ2o-239" value="Nome" style="text;html=1;align=center;verticalAlign=middle;whiteSpace=wrap;rounded=0;" parent="10htpw7wtOwzYr2ZFJ2o-237" vertex="1">
          <mxGeometry x="20" width="76" height="30" as="geometry" />
        </mxCell>
        <mxCell id="10htpw7wtOwzYr2ZFJ2o-240" value="" style="group" parent="10htpw7wtOwzYr2ZFJ2o-230" vertex="1" connectable="0">
          <mxGeometry x="2" y="90" width="96" height="30" as="geometry" />
        </mxCell>
        <mxCell id="10htpw7wtOwzYr2ZFJ2o-241" value="" style="ellipse;whiteSpace=wrap;html=1;aspect=fixed;" parent="10htpw7wtOwzYr2ZFJ2o-240" vertex="1">
          <mxGeometry y="5" width="20" height="20" as="geometry" />
        </mxCell>
        <mxCell id="10htpw7wtOwzYr2ZFJ2o-242" value="Descrizione" style="text;html=1;align=center;verticalAlign=middle;whiteSpace=wrap;rounded=0;" parent="10htpw7wtOwzYr2ZFJ2o-240" vertex="1">
          <mxGeometry x="20" width="76" height="30" as="geometry" />
        </mxCell>
        <mxCell id="10htpw7wtOwzYr2ZFJ2o-243" value="" style="group" parent="10htpw7wtOwzYr2ZFJ2o-230" vertex="1" connectable="0">
          <mxGeometry x="2" y="120" width="120" height="30" as="geometry" />
        </mxCell>
        <mxCell id="10htpw7wtOwzYr2ZFJ2o-244" value="" style="ellipse;whiteSpace=wrap;html=1;aspect=fixed;" parent="10htpw7wtOwzYr2ZFJ2o-243" vertex="1">
          <mxGeometry y="5" width="20" height="20" as="geometry" />
        </mxCell>
        <mxCell id="10htpw7wtOwzYr2ZFJ2o-245" value="Paese" style="text;html=1;align=center;verticalAlign=middle;whiteSpace=wrap;rounded=0;" parent="10htpw7wtOwzYr2ZFJ2o-243" vertex="1">
          <mxGeometry x="20" width="100" height="30" as="geometry" />
        </mxCell>
        <mxCell id="10htpw7wtOwzYr2ZFJ2o-246" value="" style="group" parent="10htpw7wtOwzYr2ZFJ2o-230" vertex="1" connectable="0">
          <mxGeometry x="2" y="150" width="110" height="30" as="geometry" />
        </mxCell>
        <mxCell id="10htpw7wtOwzYr2ZFJ2o-247" value="" style="ellipse;whiteSpace=wrap;html=1;aspect=fixed;" parent="10htpw7wtOwzYr2ZFJ2o-246" vertex="1">
          <mxGeometry y="5" width="20" height="20" as="geometry" />
        </mxCell>
        <mxCell id="10htpw7wtOwzYr2ZFJ2o-248" value="ImgURL" style="text;html=1;align=center;verticalAlign=middle;whiteSpace=wrap;rounded=0;" parent="10htpw7wtOwzYr2ZFJ2o-246" vertex="1">
          <mxGeometry x="20" width="90" height="30" as="geometry" />
        </mxCell>
        <mxCell id="10htpw7wtOwzYr2ZFJ2o-250" style="edgeStyle=orthogonalEdgeStyle;rounded=0;orthogonalLoop=1;jettySize=auto;html=1;exitX=0.25;exitY=1;exitDx=0;exitDy=0;entryX=0;entryY=0.5;entryDx=0;entryDy=0;" parent="1" source="10htpw7wtOwzYr2ZFJ2o-4" target="10htpw7wtOwzYr2ZFJ2o-232" edge="1">
          <mxGeometry relative="1" as="geometry" />
        </mxCell>
        <mxCell id="10htpw7wtOwzYr2ZFJ2o-251" style="edgeStyle=orthogonalEdgeStyle;rounded=0;orthogonalLoop=1;jettySize=auto;html=1;exitX=0.25;exitY=1;exitDx=0;exitDy=0;entryX=0;entryY=0.5;entryDx=0;entryDy=0;" parent="1" source="10htpw7wtOwzYr2ZFJ2o-4" target="10htpw7wtOwzYr2ZFJ2o-235" edge="1">
          <mxGeometry relative="1" as="geometry" />
        </mxCell>
        <mxCell id="10htpw7wtOwzYr2ZFJ2o-252" style="edgeStyle=orthogonalEdgeStyle;rounded=0;orthogonalLoop=1;jettySize=auto;html=1;exitX=0.25;exitY=1;exitDx=0;exitDy=0;entryX=0;entryY=0.5;entryDx=0;entryDy=0;" parent="1" source="10htpw7wtOwzYr2ZFJ2o-4" target="10htpw7wtOwzYr2ZFJ2o-238" edge="1">
          <mxGeometry relative="1" as="geometry" />
        </mxCell>
        <mxCell id="10htpw7wtOwzYr2ZFJ2o-253" style="edgeStyle=orthogonalEdgeStyle;rounded=0;orthogonalLoop=1;jettySize=auto;html=1;exitX=0.25;exitY=1;exitDx=0;exitDy=0;entryX=0;entryY=0.5;entryDx=0;entryDy=0;" parent="1" source="10htpw7wtOwzYr2ZFJ2o-4" target="10htpw7wtOwzYr2ZFJ2o-241" edge="1">
          <mxGeometry relative="1" as="geometry" />
        </mxCell>
        <mxCell id="10htpw7wtOwzYr2ZFJ2o-254" style="edgeStyle=orthogonalEdgeStyle;rounded=0;orthogonalLoop=1;jettySize=auto;html=1;exitX=0.25;exitY=1;exitDx=0;exitDy=0;entryX=0;entryY=0.5;entryDx=0;entryDy=0;" parent="1" source="10htpw7wtOwzYr2ZFJ2o-4" target="10htpw7wtOwzYr2ZFJ2o-244" edge="1">
          <mxGeometry relative="1" as="geometry" />
        </mxCell>
        <mxCell id="10htpw7wtOwzYr2ZFJ2o-255" style="edgeStyle=orthogonalEdgeStyle;rounded=0;orthogonalLoop=1;jettySize=auto;html=1;exitX=0.25;exitY=1;exitDx=0;exitDy=0;entryX=0;entryY=0.5;entryDx=0;entryDy=0;" parent="1" source="10htpw7wtOwzYr2ZFJ2o-4" target="10htpw7wtOwzYr2ZFJ2o-247" edge="1">
          <mxGeometry relative="1" as="geometry" />
        </mxCell>
        <mxCell id="6AZz_BTQMS4ATCR-2ha--7" style="edgeStyle=orthogonalEdgeStyle;rounded=0;orthogonalLoop=1;jettySize=auto;html=1;exitX=0.25;exitY=1;exitDx=0;exitDy=0;entryX=0;entryY=0.5;entryDx=0;entryDy=0;" edge="1" parent="1" source="10htpw7wtOwzYr2ZFJ2o-11" target="6AZz_BTQMS4ATCR-2ha--5">
          <mxGeometry relative="1" as="geometry" />
        </mxCell>
      </root>
    </mxGraphModel>
  </diagram>
</mxfile>
